<?xml version="1.0" encoding="utf-8"?>
<svg id="svg2" width="20" height="20" viewBox="39 57 50 50" xmlns="http://www.w3.org/2000/svg">
  <defs id="defs4">
    <style type="text/css" id="style6">
   
    .fil0 {fill:#EF7900}
   
  </style>
  </defs>
  <path id="path1935" style="fill: rgb(255, 255, 255); fill-opacity: 1; stroke: rgb(0, 0, 0); stroke-width: 2;" d="M 49.73 101.741 C 47.982 101.148 47.787 100.979 47.414 99.728 C 47.063 98.554 47.063 98.391 47.415 98.319 C 47.617 98.277 49.696 96.195 53.763 91.963 C 57.089 88.502 60.236 85.24 60.757 84.712 C 61.466 83.995 61.677 83.71 61.6 83.577 C 61.383 83.198 52.309 73.764 52.077 73.676 C 51.988 73.642 51.75 73.785 51.551 73.995 C 51.092 74.478 48.838 77.453 47.476 79.376 C 46.903 80.185 46.368 80.841 46.288 80.834 C 46.209 80.826 45.011 79.926 43.626 78.834 L 41.11 76.846 L 41.447 76.552 C 41.632 76.391 42.314 75.491 42.96 74.553 C 44.844 71.822 46.912 69.157 47.942 68.136 C 49.338 66.754 57.168 61.024 57.662 61.024 C 57.788 61.024 58.496 61.834 59.504 63.134 C 60.623 64.576 61.248 65.282 61.478 65.367 C 61.664 65.435 61.798 65.54 61.775 65.602 C 61.754 65.662 60.531 66.61 59.061 67.706 C 57.59 68.803 56.001 70.053 55.531 70.485 C 54.297 71.618 54.239 71.483 57.183 74.409 C 60.139 77.347 67.505 84.416 74.809 91.32 C 77.817 94.164 80.655 96.848 81.118 97.286 C 81.658 97.797 82.056 98.08 82.233 98.08 C 82.494 98.08 82.503 98.108 82.424 98.696 C 82.292 99.678 81.882 100.561 81.413 100.874 C 80.973 101.167 80.125 101.435 79.262 101.555 L 78.722 101.63 L 71.665 94.146 C 67.783 90.03 64.571 86.678 64.526 86.696 C 64.481 86.713 61.542 89.984 57.995 93.963 C 54.447 97.943 51.35 101.393 51.113 101.631 L 50.682 102.064 L 49.73 101.741 Z M 65.784 82.282 L 64.364 80.953 L 68.647 76.508 C 72.26 72.756 72.928 72.01 72.928 71.721 C 72.928 71.427 72.523 71.007 69.976 68.66 C 68.354 67.165 67.055 65.893 67.091 65.835 C 67.127 65.777 67.266 65.73 67.399 65.73 C 67.55 65.73 68.44 64.977 69.762 63.73 C 70.928 62.63 71.938 61.731 72.009 61.731 C 72.078 61.731 73.344 62.895 74.82 64.318 C 77.62 67.017 77.817 67.152 78.256 66.672 C 78.375 66.542 78.556 66.437 78.661 66.437 C 78.765 66.438 79.224 66.754 79.682 67.137 C 80.212 67.584 80.639 67.849 80.864 67.872 L 81.215 67.907 L 80.819 68.352 C 80.602 68.597 80.405 68.953 80.382 69.142 C 80.347 69.446 80.455 69.585 81.307 70.314 C 81.838 70.77 82.331 71.142 82.403 71.142 C 82.523 71.143 87.825 81.264 87.755 81.356 C 87.739 81.377 85.702 80.326 83.229 79.02 L 78.732 76.647 L 77.363 75.306 C 76.611 74.568 75.961 73.965 75.919 73.965 C 75.878 73.965 73.908 76.135 71.541 78.788 C 69.174 81.44 67.23 83.611 67.219 83.611 C 67.211 83.611 66.565 83.013 65.784 82.282 Z"/>
</svg>